<?xml version="1.0" encoding="UTF-8"?>
<svg version="1.1" xmlns="http://www.w3.org/2000/svg" width="2000" height="1500">
<path d="M0 0 C660 0 1320 0 2000 0 C2000 495 2000 990 2000 1500 C1340 1500 680 1500 0 1500 C0 1005 0 510 0 0 Z " fill="#2ECC40" transform="translate(0,0)"/>
<path d="M0 0 C7.39857943 5.23344331 12.18584688 12.1833672 15.5234375 20.52734375 C15.8534375 12.93734375 16.1834375 5.34734375 16.5234375 -2.47265625 C37.9734375 -2.47265625 59.4234375 -2.47265625 81.5234375 -2.47265625 C81.56757787 27.88064211 81.60448716 58.23391835 81.62556816 88.58723934 C81.62806939 92.17559125 81.63065806 95.76394311 81.63330078 99.35229492 C81.6338254 100.06663243 81.63435002 100.78096994 81.63489054 101.51695404 C81.64357898 113.0638651 81.6593403 124.61075612 81.67774309 136.15765532 C81.69648567 148.01719699 81.70756342 159.87672821 81.71161449 171.73628408 C81.71410582 178.3928161 81.7203186 185.04931169 81.73489761 191.70583153 C81.74852167 197.97743698 81.75265039 204.24897861 81.74965286 210.52059746 C81.75020087 212.81625974 81.75414943 215.11192426 81.76184845 217.4075737 C81.8330796 239.75208876 81.8330796 239.75208876 79.5234375 250.52734375 C79.36800539 251.2574425 79.21257328 251.98754126 79.05243111 252.73976421 C75.20219969 269.41721848 68.95240278 284.31674163 54.5234375 294.52734375 C49.97168796 297.18752791 45.35434577 299.42087429 40.5234375 301.52734375 C39.60175781 301.92953125 38.68007812 302.33171875 37.73046875 302.74609375 C9.2481239 313.59651084 -31.45753589 312.37251308 -59.4765625 300.52734375 C-66.49190942 297.27632933 -74.1711829 293.26501354 -79.4765625 287.52734375 C-79.4765625 282.86667285 -78.40079221 281.17641144 -76.08203125 277.1875 C-75.73400955 276.5835289 -75.38598785 275.9795578 -75.02742004 275.35728455 C-73.91431253 273.43003136 -72.78938151 271.50998701 -71.6640625 269.58984375 C-70.91783929 268.30188419 -70.17238802 267.01347704 -69.42773438 265.72460938 C-66.48213647 260.63591505 -63.5117154 255.56324503 -60.4765625 250.52734375 C-56.79770161 251.04598015 -53.86804054 252.21746205 -50.56835938 253.90209961 C-35.83156738 261.40528334 -17.84936333 265.85650582 -1.4609375 261.328125 C5.99630693 258.31880392 9.68125821 253.35725429 13.39453125 246.40625 C15.53957952 240.93600579 15.64695696 235.31922126 15.62109375 229.5 C15.61787109 228.21416016 15.61464844 226.92832031 15.61132812 225.60351562 C15.60297552 224.2656243 15.59451061 222.92773368 15.5859375 221.58984375 C15.58091409 220.22461101 15.57635267 218.85937649 15.57226562 217.49414062 C15.56052601 214.17182918 15.54410429 210.84960967 15.5234375 207.52734375 C15.26949219 208.06278809 15.01554687 208.59823242 14.75390625 209.14990234 C9.8191648 219.32665144 3.1137221 224.3693664 -7.4765625 228.52734375 C-22.13864403 231.97355949 -39.25609759 230.72015821 -52.2265625 222.90234375 C-66.04586396 212.67707307 -72.69868738 197.5667003 -75.51611328 180.93701172 C-77.12139783 169.38837988 -76.78471222 157.72188811 -76.77734375 146.0859375 C-76.78123953 143.5106652 -76.78557598 140.93539354 -76.79032898 138.36012268 C-76.79776203 132.97663002 -76.79766306 127.59320976 -76.79223633 122.2097168 C-76.78621649 116.04541298 -76.79847156 109.88133858 -76.8198064 103.71707386 C-76.83976924 97.72205733 -76.84256967 91.72715792 -76.83907127 85.73210335 C-76.839579 83.21235683 -76.84471149 80.69260621 -76.85488319 78.17288017 C-77.03916766 26.12706192 -77.03916766 26.12706192 -60.41015625 7.171875 C-45.17175877 -7.35775981 -18.19976748 -10.82225921 0 0 Z " fill="#FDFEFD" transform="translate(1451.4765625,790.47265625)"/>
<path d="M0 0 C21.12 0 42.24 0 64 0 C67.0760782 14.76517536 70.08909192 29.49711171 72.82333374 44.32296753 C75.66423018 59.71805834 78.57377138 75.09521737 81.6875 90.4375 C84.03624712 102.0208638 86.26466344 113.6207261 88.375 125.25 C88.5026474 125.95172333 88.6302948 126.65344666 88.7618103 127.37643433 C89.94776969 133.91059114 91.06058512 140.42409585 92 147 C92.33 98.82 92.66 50.64 93 1 C112.47 1 131.94 1 152 1 C152 103.3 152 205.6 152 311 C131.87 311 111.74 311 91 311 C89.62134766 303.61560547 89.62134766 303.61560547 88.21484375 296.08203125 C83.22276233 269.57283517 77.86981384 243.13498988 72.5625 216.6875 C69.076875 199.300625 65.59125 181.91375 62 164 C61.67 212.51 61.34 261.02 61 311 C40.87 311 20.74 311 0 311 C0 208.37 0 105.74 0 0 Z " fill="#FEFEFE" transform="translate(710,378)"/>
<path d="M0 0 C21.12 0 42.24 0 64 0 C64.01458252 6.19322021 64.02916504 12.38644043 64.04418945 18.76733398 C64.09449559 39.21523474 64.1609333 59.66305947 64.23571491 80.11088467 C64.28066619 92.510031 64.32008247 104.90914865 64.34643555 117.30834961 C64.36942095 128.11642561 64.40282519 138.92441081 64.44870156 149.73241478 C64.4726263 155.45431333 64.49136005 161.17612197 64.49761391 166.89806938 C64.50366805 172.28659582 64.52368019 177.67489226 64.55427551 183.06333351 C64.56305038 185.03814471 64.56677946 187.01298596 64.56500816 188.98781586 C64.56334937 191.69119211 64.58010613 194.39387222 64.60127258 197.09715271 C64.59642501 197.87247249 64.59157743 198.64779226 64.58658296 199.44660658 C64.65671843 204.90151526 65.51663723 210.08460451 68 215 C71.42329851 217.28219901 72.84137668 217.29741163 76.875 217.3125 C77.90367187 217.32925781 78.93234375 217.34601563 79.9921875 217.36328125 C83.45780779 216.94470633 85.27080287 216.16420544 88 214 C89.20134239 211.88606876 89.20134239 211.88606876 89.75 209.4375 C89.97171875 208.65246094 90.1934375 207.86742187 90.421875 207.05859375 C92.42104022 196.48192909 92.17113712 185.77531076 92.20532227 175.05615234 C92.21491411 173.14336949 92.22492494 171.23058871 92.23532104 169.31781006 C92.26223469 164.14915885 92.28331712 158.98049863 92.30332303 153.81181669 C92.32526661 148.40127156 92.35261415 142.99075375 92.37937927 137.58023071 C92.42919337 127.34536418 92.47417383 117.11048239 92.51740164 106.87558615 C92.56687073 95.21896788 92.62175285 83.56237703 92.67708123 71.90578532 C92.79072797 47.9372146 92.89688992 23.96861853 93 0 C113.79 0 134.58 0 156 0 C156 87.45 156 174.9 156 265 C135.21 265 114.42 265 93 265 C92.67 256.42 92.34 247.84 92 239 C90.515 242.1865625 90.515 242.1865625 89 245.4375 C84.88419046 253.84382382 79.99977649 261.20322827 71.25 265.24609375 C57.22967312 269.94387689 40.60499024 270.15511271 27 264 C24.15804084 262.52553019 21.55450237 260.92708074 19 259 C18.17628906 258.3915625 17.35257813 257.783125 16.50390625 257.15625 C4.11420657 246.48680503 1.62659288 228.37365346 0 213 C-0.4739607 205.77171837 -0.38220036 198.53007236 -0.34057617 191.2902832 C-0.33972753 189.18898531 -0.34020965 187.08768654 -0.34190369 184.98638916 C-0.34275582 179.34505198 -0.32525838 173.70391062 -0.30418181 168.06261849 C-0.28528297 162.14365935 -0.28365425 156.2246945 -0.28010559 150.30570984 C-0.27082361 139.12547896 -0.24626249 127.94533728 -0.21605712 116.76514548 C-0.18239259 104.02493567 -0.16599694 91.28472135 -0.15097082 78.54447806 C-0.11970904 52.3629247 -0.06474568 26.18149344 0 0 Z " fill="#FDFEFD" transform="translate(888,424)"/>
<path d="M0 0 C13.43934953 10.46583491 18.39232498 26.15652248 20.78227901 42.42178345 C21.32106893 46.88846583 21.37869575 51.29989395 21.36244202 55.79443359 C21.36372365 57.10938167 21.36372365 57.10938167 21.36503118 58.45089436 C21.36666994 61.36962787 21.36119102 64.28830309 21.35571289 67.20703125 C21.35543065 69.30670673 21.35558948 71.40638231 21.3561554 73.50605774 C21.35644192 79.19342783 21.35056862 84.88077676 21.34358144 90.56814194 C21.33732376 96.51653689 21.33674219 102.46493234 21.33555603 108.41333008 C21.33244984 119.67180433 21.32424604 130.93026885 21.31420654 142.18873882 C21.3030233 155.00850985 21.29752938 167.82828134 21.29251111 180.64805603 C21.28206284 207.01407524 21.26372619 233.38008111 21.2421875 259.74609375 C0.4521875 259.74609375 -20.3378125 259.74609375 -41.7578125 259.74609375 C-41.76192139 253.55811035 -41.76603027 247.37012695 -41.77026367 240.99462891 C-41.78745435 220.5586922 -41.83169291 200.12288035 -41.88990307 179.68702126 C-41.92453752 167.29572206 -41.94990658 154.90453394 -41.95336914 142.51318359 C-41.95641116 131.71128678 -41.9769339 120.90958786 -42.01833707 110.10776746 C-42.03964686 104.38968273 -42.0522779 98.6718792 -42.04396629 92.95375443 C-42.03641361 87.56756779 -42.05229911 82.18195033 -42.08587265 76.79586792 C-42.09409114 74.82309013 -42.09387337 72.85025558 -42.08440971 70.87748337 C-41.53711775 56.34634223 -41.53711775 56.34634223 -47.7578125 43.74609375 C-52.1546936 41.63602209 -55.94373475 40.99267101 -60.7578125 41.74609375 C-65.24908682 44.09380533 -66.91909932 47.50626595 -68.9609375 51.94140625 C-71.84196322 62.08148697 -70.92999096 73.33442595 -70.96313477 83.78173828 C-70.9727265 85.70437321 -70.98273732 87.62700609 -70.99313354 89.54963684 C-71.02004839 94.74514676 -71.04113018 99.94066565 -71.06113553 105.13620615 C-71.08307837 110.57477842 -71.11042628 116.01332349 -71.13719177 121.45187378 C-71.18700688 131.73986434 -71.23198697 142.02787008 -71.27521414 152.31589019 C-71.32468237 164.03296672 -71.37956481 175.75001596 -71.43489373 187.46706605 C-71.54854201 211.56005102 -71.65470347 235.65306121 -71.7578125 259.74609375 C-92.5478125 259.74609375 -113.3378125 259.74609375 -134.7578125 259.74609375 C-134.7578125 172.29609375 -134.7578125 84.84609375 -134.7578125 -5.25390625 C-113.9678125 -5.25390625 -93.1778125 -5.25390625 -71.7578125 -5.25390625 C-71.2628125 9.10109375 -71.2628125 9.10109375 -70.7578125 23.74609375 C-69.1078125 19.78609375 -67.4578125 15.82609375 -65.7578125 11.74609375 C-50.23048967 -10.81246961 -23.29528398 -15.31378504 0 0 Z " fill="#FDFEFD" transform="translate(1329.7578125,793.25390625)"/>
<path d="M0 0 C20.79 0 41.58 0 63 0 C63.91562923 2.74688768 64.23817875 4.82746467 64.46142578 7.68652344 C64.53912704 8.6555661 64.61682831 9.62460876 64.69688416 10.62301636 C64.77886551 11.69101471 64.86084686 12.75901306 64.9453125 13.859375 C65.13369022 16.2211928 65.32208638 18.58300913 65.51049805 20.94482422 C65.66003433 22.84600006 65.66003433 22.84600006 65.81259155 24.7855835 C66.35328729 31.64693158 66.90767762 38.50715941 67.46484375 45.3671875 C67.55378245 46.46352949 67.55378245 46.46352949 67.6445179 47.58201981 C69.22450305 67.02181502 70.95461023 86.44834247 72.6875 105.875 C72.76292274 106.72086166 72.83834549 107.56672333 72.91605377 108.43821716 C73.56382105 115.70237249 74.2121258 122.96647971 74.86175537 130.23046875 C75.92744006 142.1519557 76.97253491 154.07515418 78 166 C80.17487758 153.72619088 81.21342304 141.33842831 82.375 128.9375 C82.59463643 126.6236739 82.81452936 124.30987213 83.03466797 121.99609375 C84.52817057 106.24780668 85.95828332 90.49399296 87.37295532 74.73846436 C88.74612123 59.47025255 90.32298542 44.2389586 92 29 C92.99 19.43 93.98 9.86 95 0 C115.79 0 136.58 0 158 0 C158 8.99906375 158 8.99906375 157.38916016 12.26611328 C157.25547028 13.00113068 157.1217804 13.73614807 156.98403931 14.49343872 C156.83719696 15.26130707 156.69035461 16.02917542 156.5390625 16.8203125 C156.38843353 17.64143524 156.23780457 18.46255798 156.08261108 19.30856323 C155.60339787 21.91532612 155.11479038 24.52020571 154.625 27.125 C153.98835887 30.54356993 153.35588276 33.96288754 152.7265625 37.3828125 C152.57262024 38.21802429 152.41867798 39.05323608 152.2600708 39.91375732 C151.19560243 45.75470484 150.30795407 51.60476515 149.50537109 57.48779297 C148.38513862 65.27313809 146.96068838 73.01221589 145.60449219 80.75927734 C144.31112693 88.16162716 143.03354438 95.55591794 142 103 C140.75632101 111.95757222 139.1637153 120.85245593 137.60449219 129.75927734 C136.31112693 137.16162716 135.03354438 144.55591794 134 152 C132.75632101 160.95757222 131.1637153 169.85245593 129.60449219 178.75927734 C128.31112693 186.16162716 127.03354438 193.55591794 126 201 C124.75632101 209.95757222 123.1637153 218.85245593 121.60449219 227.75927734 C121.21377586 229.99547388 120.82494033 232.23198361 120.4375 234.46875 C120.24921631 235.55434204 120.24921631 235.55434204 120.05712891 236.66186523 C119.08331924 242.34842487 118.26592094 248.04926964 117.52734375 253.77148438 C116.90889167 257.55778545 115.93048244 261.27807022 115 265 C90.91 265 66.82 265 42 265 C36.65567653 233.10106931 31.39018099 201.19479889 26.3135376 169.25245667 C24.97178756 160.81206276 23.61410816 152.37430553 22.25 143.9375 C20.66100076 134.10346106 19.08116005 124.26801886 17.50976562 114.43115234 C16.46142783 107.87282571 15.40640731 101.3156077 14.34716797 94.7590332 C12.02451236 80.3815481 9.7114634 66.00251706 7.40588379 51.62228394 C7.05752583 49.45045349 6.70882319 47.2786783 6.35974121 45.10696411 C4.62614632 34.31995364 2.90638139 23.53084521 1.2578125 12.73046875 C1.12962128 11.9036409 1.00143005 11.07681305 0.86935425 10.22492981 C0.34640795 6.76086173 0 3.51224324 0 0 Z " fill="#FEFEFE" transform="translate(932,788)"/>
<path d="M0 0 C40.92 0 81.84 0 124 0 C124 20.13 124 40.26 124 61 C103.87 61 83.74 61 63 61 C63 77.17 63 93.34 63 110 C82.14 110 101.28 110 121 110 C121 129.8 121 149.6 121 170 C101.53 170 82.06 170 62 170 C62 216.53 62 263.06 62 311 C41.54 311 21.08 311 0 311 C0 208.37 0 105.74 0 0 Z " fill="#FEFEFE" transform="translate(1394,378)"/>
<path d="M0 0 C0.74330566 -0.00287018 1.48661133 -0.00574036 2.25244141 -0.00869751 C3.8225989 -0.01073726 5.39278186 -0.0052135 6.96289062 0.00732422 C9.36646332 0.02338047 11.76835461 0.00747398 14.171875 -0.01171875 C15.69792038 -0.0097363 17.22396471 -0.00589259 18.75 0 C19.46881348 -0.00607269 20.18762695 -0.01214539 20.92822266 -0.0184021 C25.29513736 0.04316007 26.12725863 0.15069613 29.375 3.3984375 C29.375 24.5184375 29.375 45.6384375 29.375 67.3984375 C104.285 67.0684375 179.195 66.7384375 256.375 66.3984375 C256.705 45.6084375 257.035 24.8184375 257.375 3.3984375 C260.58201601 0.19142149 261.34361502 0.04017728 265.6436615 -0.04405212 C266.33746414 -0.04111649 267.03126678 -0.03818085 267.74609375 -0.03515625 C268.4648317 -0.0403981 269.18356964 -0.04563995 269.92408752 -0.05104065 C271.44294952 -0.05745856 272.96186123 -0.05612675 274.48071289 -0.04760742 C276.80119686 -0.03910392 279.11921286 -0.0678455 281.43945312 -0.09960938 C282.91666593 -0.10122174 284.39388308 -0.10064319 285.87109375 -0.09765625 C286.56287216 -0.10889023 287.25465057 -0.12012421 287.96739197 -0.13169861 C291.00153231 -0.08795627 293.14772262 0.27416469 295.81958008 1.73510742 C298.37075284 6.1034552 297.8630302 10.54831963 297.765625 15.5078125 C297.75996521 16.58975891 297.75430542 17.67170532 297.74847412 18.78643799 C297.72608999 22.24088857 297.67588791 25.69430061 297.625 29.1484375 C297.60493772 31.49087043 297.58668648 33.83331963 297.5703125 36.17578125 C297.52621855 41.9170208 297.45928555 47.65765495 297.375 53.3984375 C298.02049805 53.37749023 298.66599609 53.35654297 299.33105469 53.33496094 C302.26221068 53.25169545 305.19311777 53.19974544 308.125 53.1484375 C309.14078125 53.11492188 310.1565625 53.08140625 311.203125 53.046875 C312.67265625 53.02753906 312.67265625 53.02753906 314.171875 53.0078125 C315.07260742 52.98686523 315.97333984 52.96591797 316.90136719 52.94433594 C320.25705765 53.56036281 321.38008226 54.65788626 323.375 57.3984375 C323.88293457 60.13710022 323.88293457 60.13710022 323.89257812 63.31274414 C323.90518677 64.50400406 323.91779541 65.69526398 323.93078613 66.92262268 C323.91864075 68.84617836 323.91864075 68.84617836 323.90625 70.80859375 C323.9100769 72.12758163 323.91390381 73.44656952 323.91784668 74.80552673 C323.92373658 77.5939309 323.91519489 80.38182164 323.89648438 83.17016602 C323.87367162 86.74392741 323.88683382 90.31648876 323.91077423 93.89020634 C323.92870156 97.30059849 323.91615217 100.71066749 323.90625 104.12109375 C323.91434692 105.40548843 323.92244385 106.68988312 323.93078613 108.01319885 C323.91187317 109.79536049 323.91187317 109.79536049 323.89257812 111.61352539 C323.88939575 112.66069229 323.88621338 113.70785919 323.88293457 114.78675842 C323.375 117.3984375 323.375 117.3984375 321.66784668 119.24168396 C318.9524586 120.61161192 317.20369645 120.74428686 314.171875 120.69140625 C312.70234375 120.6769043 312.70234375 120.6769043 311.203125 120.66210938 C310.18734375 120.63697266 309.1715625 120.61183594 308.125 120.5859375 C307.09375 120.57240234 306.0625 120.55886719 305 120.54492188 C302.45780208 120.50961357 299.91666777 120.46029786 297.375 120.3984375 C297.38610306 121.00121017 297.39720612 121.60398285 297.40864563 122.22502136 C297.51932556 128.50280936 297.59470304 134.78031993 297.6496582 141.05883789 C297.67479125 143.40140034 297.70890308 145.74388445 297.75219727 148.08618164 C297.81289928 151.45478649 297.84122251 154.82235399 297.86328125 158.19140625 C297.88908768 159.23741501 297.9148941 160.28342377 297.94148254 161.36112976 C297.94327459 166.0144581 297.89661124 168.60759179 295.29003906 172.55957031 C291.68493744 174.83374329 289.49471213 175.02981404 285.24609375 175.02734375 C284.57457779 175.02975571 283.90306183 175.03216766 283.2111969 175.03465271 C281.79837103 175.03367741 280.38550544 175.02035891 278.97290039 174.99536133 C276.81459566 174.96097089 274.66037257 174.97473082 272.50195312 174.99414062 C271.12498264 174.98724331 269.74802268 174.97757193 268.37109375 174.96484375 C266.50215454 174.94852905 266.50215454 174.94852905 264.59545898 174.93188477 C261.375 174.3984375 261.375 174.3984375 257.375 170.3984375 C257.375 149.6084375 257.375 128.8184375 257.375 107.3984375 C182.135 107.3984375 106.895 107.3984375 29.375 107.3984375 C29.375 127.8584375 29.375 148.3184375 29.375 169.3984375 C24.375 174.3984375 24.375 174.3984375 21.1328125 175.02954102 C19.93398438 175.02881592 18.73515625 175.02809082 17.5 175.02734375 C16.18515625 175.02927734 14.8703125 175.03121094 13.515625 175.03320312 C12.4956543 175.01447144 12.4956543 175.01447144 11.45507812 174.99536133 C9.38012993 174.9610224 7.30944091 174.97471761 5.234375 174.99414062 C-4.47992756 174.92271193 -4.47992756 174.92271193 -8.52416992 173.07104492 C-11.90391516 168.7714434 -11.24090187 164.37684013 -11.11328125 159.0703125 C-11.10620651 157.96617004 -11.09913177 156.86202759 -11.09184265 155.72442627 C-11.06385763 152.19840705 -11.00110756 148.67397663 -10.9375 145.1484375 C-10.91242262 142.75783543 -10.88960848 140.36720848 -10.86914062 137.9765625 C-10.81401746 132.11664556 -10.73034896 126.25765503 -10.625 120.3984375 C-11.30079102 120.42462158 -11.97658203 120.45080566 -12.67285156 120.4777832 C-15.73999712 120.58183014 -18.80677158 120.64678697 -21.875 120.7109375 C-22.93847656 120.75283203 -24.00195312 120.79472656 -25.09765625 120.83789062 C-26.12246094 120.85400391 -27.14726562 120.87011719 -28.203125 120.88671875 C-29.14575195 120.91290283 -30.08837891 120.93908691 -31.05957031 120.96606445 C-33.625 120.3984375 -33.625 120.3984375 -35.93151855 118.23219299 C-37.84887264 115.02382441 -38.130863 113.2778118 -38.14257812 109.57006836 C-38.15518677 108.42215317 -38.16779541 107.27423798 -38.18078613 106.09153748 C-38.17268921 104.86121292 -38.16459229 103.63088837 -38.15625 102.36328125 C-38.1600769 101.09247208 -38.16390381 99.8216629 -38.16784668 98.51234436 C-38.17056697 95.82790402 -38.1652176 93.14492453 -38.14648438 90.46069336 C-38.12367092 87.02492597 -38.13683812 83.59040687 -38.16077423 80.15468502 C-38.17872155 76.8700059 -38.16614896 73.58547667 -38.15625 70.30078125 C-38.16434692 69.06843246 -38.17244385 67.83608368 -38.18078613 66.56639099 C-38.16817749 65.42162796 -38.15556885 64.27686493 -38.14257812 63.09741211 C-38.13939575 62.09101181 -38.13621338 61.08461151 -38.13293457 60.04771423 C-37.47394289 56.61055635 -36.44480907 55.43791161 -33.625 53.3984375 C-31.05957031 52.94433594 -31.05957031 52.94433594 -28.203125 53.0078125 C-26.66591797 53.02714844 -26.66591797 53.02714844 -25.09765625 53.046875 C-23.50244141 53.09714844 -23.50244141 53.09714844 -21.875 53.1484375 C-20.79605469 53.16648437 -19.71710938 53.18453125 -18.60546875 53.203125 C-15.94441212 53.25022335 -13.28515746 53.3159815 -10.625 53.3984375 C-10.63166183 52.77869553 -10.63832367 52.15895355 -10.64518738 51.52043152 C-10.71146509 45.0806496 -10.75676909 38.64096428 -10.78979492 32.20092773 C-10.80489816 29.79626532 -10.82538208 27.39163052 -10.85131836 24.98706055 C-10.88763351 21.53427319 -10.904711 18.08184946 -10.91796875 14.62890625 C-10.93345261 13.55070114 -10.94893646 12.47249603 -10.96488953 11.36161804 C-10.96511612 10.36080704 -10.96534271 9.35999603 -10.96557617 8.32885742 C-10.97223801 7.44727463 -10.97889984 6.56569183 -10.98576355 5.65739441 C-10.625 3.3984375 -10.625 3.3984375 -9.3170929 1.61454773 C-6.50850363 -0.40399046 -3.33056302 -0.02813732 0 0 Z " fill="#111211" transform="translate(313.625,671.6015625)"/>
<path d="M0 0 C20.46 0 40.92 0 62 0 C62 85.14 62 170.28 62 258 C83.12 258 104.24 258 126 258 C126 275.49 126 292.98 126 311 C84.42 311 42.84 311 0 311 C0 208.37 0 105.74 0 0 Z " fill="#FEFEFE" transform="translate(710,742)"/>
<path d="M0 0 C20.46 0 40.92 0 62 0 C62 18.81 62 37.62 62 57 C67.94 57 73.88 57 80 57 C80 72.84 80 88.68 80 105 C74.06 105 68.12 105 62 105 C62.08425991 125.27085685 62.17895588 145.54163228 62.28752708 165.81237411 C62.33767378 175.22418336 62.38411646 184.6359838 62.421875 194.04785156 C62.45479021 202.25011697 62.49461882 210.45231449 62.54279006 218.65450501 C62.56805973 222.99850569 62.58983964 227.3424613 62.60334396 231.68651581 C62.61616007 235.77407174 62.63820957 239.86147318 62.66738319 243.94894409 C62.6764625 245.45015037 62.68215003 246.95138152 62.68421364 248.45261383 C62.6875335 250.50065052 62.7041822 252.54865273 62.7215271 254.59661865 C62.72705786 255.74332912 62.73258862 256.8900396 62.73828697 258.07149887 C62.99536618 260.9481487 63.40957826 262.61308153 65 265 C69.21637021 267.10818511 74.30223824 266.60851985 79 267 C79 281.19 79 295.38 79 310 C36.09128073 318.63571709 36.09128073 318.63571709 18 310 C16.75089844 309.45085937 16.75089844 309.45085937 15.4765625 308.890625 C8.16704261 304.95659768 4.603771 297.63100733 2 290 C-0.58429361 281.08543797 -0.26934212 271.98420839 -0.22705078 262.80029297 C-0.22648581 261.07470201 -0.2268049 259.34911058 -0.22793579 257.6235199 C-0.22850695 252.96512702 -0.21679109 248.30683825 -0.20278788 243.64846945 C-0.19024094 238.77046335 -0.1891069 233.89245456 -0.18673706 229.01443481 C-0.18053391 219.78888548 -0.1641389 210.56338384 -0.14403808 201.33785546 C-0.12164276 190.82997045 -0.11067653 180.32208309 -0.10064721 169.81418014 C-0.07977161 148.20942614 -0.044213 126.60471776 0 105 C-5.94 105 -11.88 105 -18 105 C-18 88.83 -18 72.66 -18 56 C-12.06 56 -6.12 56 0 56 C0 37.52 0 19.04 0 0 Z " fill="#FCFEFC" transform="translate(1080,378)"/>
<path d="M0 0 C20.46 0 40.92 0 62 0 C62 18.48 62 36.96 62 56 C67.61 56 73.22 56 79 56 C79 72.17 79 88.34 79 105 C73.39 105 67.78 105 62 105 C62.08425991 125.27085685 62.17895588 145.54163228 62.28752708 165.81237411 C62.33767378 175.22418336 62.38411646 184.6359838 62.421875 194.04785156 C62.45479021 202.25011697 62.49461882 210.45231449 62.54279006 218.65450501 C62.56805973 222.99850569 62.58983964 227.3424613 62.60334396 231.68651581 C62.61616007 235.77407174 62.63820957 239.86147318 62.66738319 243.94894409 C62.6764625 245.45015037 62.68215003 246.95138152 62.68421364 248.45261383 C62.6875335 250.50065052 62.7041822 252.54865273 62.7215271 254.59661865 C62.72705786 255.74332912 62.73258862 256.8900396 62.73828697 258.07149887 C62.99536618 260.9481487 63.40957826 262.61308153 65 265 C69.21637021 267.10818511 74.30223824 266.60851985 79 267 C79 281.19 79 295.38 79 310 C66.63926203 312.35442628 54.78102096 314.39754594 42.1875 314.4375 C41.22972656 314.44716797 40.27195312 314.45683594 39.28515625 314.46679688 C27.99433373 314.33313115 16.76138062 311.46308441 8.40625 303.4765625 C1.93730806 295.39038507 -0.1274286 283.78232007 -0.12025452 273.71708679 C-0.12110894 272.99410945 -0.12196337 272.27113211 -0.12284368 271.52624637 C-0.12448764 269.1095132 -0.11899488 266.6928498 -0.11352539 264.27612305 C-0.11324326 262.54141746 -0.11340176 260.80671175 -0.1139679 259.07200623 C-0.11425486 254.36583037 -0.10837444 249.65967998 -0.10139394 244.95351005 C-0.09514359 240.03409692 -0.09455527 235.11468321 -0.09336853 230.19526672 C-0.09026018 220.8810282 -0.08205347 211.56680142 -0.07201904 202.25256807 C-0.06084251 191.64806055 -0.05534357 181.04355248 -0.05032361 170.43904054 C-0.03987046 148.6260203 -0.02207921 126.8130113 0 105 C-5.94 105 -11.88 105 -18 105 C-18 88.83 -18 72.66 -18 56 C-12.06 56 -6.12 56 0 56 C0 37.52 0 19.04 0 0 Z " fill="#FCFEFD" transform="translate(1636,378)"/>
<path d="M0 0 C0 17.49 0 34.98 0 53 C-6.6 53.66 -13.2 54.32 -20 55 C-23.58507705 55.69802162 -26.9026859 56.38111299 -30.375 57.375 C-31.52355469 57.66890625 -31.52355469 57.66890625 -32.6953125 57.96875 C-37.45962827 59.26661533 -41.15411902 60.75651951 -45 64 C-45.61579702 67.00433942 -45.81173604 69.21808942 -45.75949097 72.22564697 C-45.76870107 73.06210935 -45.77791117 73.89857173 -45.78740036 74.76038146 C-45.81102574 77.56777835 -45.79185504 80.37325516 -45.77294922 83.18066406 C-45.78111764 85.19109281 -45.79191866 87.20151233 -45.80516052 89.21191406 C-45.83365664 94.67450309 -45.82522474 100.13649081 -45.81029272 105.5991106 C-45.80092981 111.3060267 -45.82534756 117.01279435 -45.84622192 122.71966553 C-45.880605 133.52854143 -45.88449322 144.33720588 -45.87749684 155.14612556 C-45.87101176 167.45076451 -45.89841369 179.75525442 -45.92869925 192.05984926 C-45.99024266 217.37329398 -46.00463593 242.68647492 -46 268 C-67.12 268 -88.24 268 -110 268 C-110 180.55 -110 93.1 -110 3 C-88.88 3 -67.76 3 -46 3 C-45.505 15.375 -45.505 15.375 -45 28 C-44.175 26.35 -43.35 24.7 -42.5 23 C-35.82227925 10.87425533 -25.81021842 4.54607234 -12.77734375 0.4453125 C-8.56938938 -0.2293806 -4.26170045 0 0 0 Z " fill="#FEFEFE" transform="translate(1290,421)"/>
<path d="M0 0 C20.79 0 41.58 0 63 0 C63 87.45 63 174.9 63 265 C42.21 265 21.42 265 0 265 C0 177.55 0 90.1 0 0 Z " fill="#FEFEFE" transform="translate(1107,788)"/>
<path d="M0 0 C20.79 0 41.58 0 63 0 C63 87.45 63 174.9 63 265 C42.21 265 21.42 265 0 265 C0 177.55 0 90.1 0 0 Z " fill="#FEFEFE" transform="translate(852,788)"/>
<path d="M0 0 C20.79 0 41.58 0 63 0 C63 87.45 63 174.9 63 265 C42.21 265 21.42 265 0 265 C0 177.55 0 90.1 0 0 Z " fill="#FEFEFE" transform="translate(1537,424)"/>
<path d="M0 0 C20.79 0 41.58 0 63 0 C63 87.45 63 174.9 63 265 C42.21 265 21.42 265 0 265 C0 177.55 0 90.1 0 0 Z " fill="#FEFEFE" transform="translate(1305,424)"/>
<path d="M0 0 C5.30946529 2.94970294 7.86925657 8.14538264 9.5406065 13.84288597 C10.0271069 16.12728235 10.13437628 18.17925238 10.14717102 20.51382446 C10.15432632 21.41360016 10.16148163 22.31337585 10.16885376 23.24041748 C10.17288712 24.71009979 10.17288712 24.71009979 10.17700195 26.20947266 C10.18357315 27.24737946 10.19014435 28.28528625 10.19691467 29.35464478 C10.21663173 32.79111811 10.22830779 36.22754773 10.23828125 39.6640625 C10.24235678 40.83942944 10.2464323 42.01479637 10.25063133 43.22578049 C10.2714869 49.44885838 10.28578995 55.67191426 10.29516602 61.89501953 C10.30621949 68.31069677 10.3406091 74.72602614 10.38033772 81.14158058 C10.40653258 86.08483508 10.41486051 91.02800712 10.41844749 95.97132492 C10.42330725 98.3355074 10.43490369 100.69968636 10.45348549 103.06380081 C10.47793347 106.38086432 10.47690097 109.69703341 10.4699707 113.01416016 C10.48278076 113.98180298 10.49559082 114.9494458 10.50878906 115.94641113 C10.45082467 123.59863571 8.87714244 130.62963315 3.8125 136.5625 C-0.08435308 138.55422491 -3.63014684 139.19899149 -8 139 C-12.18650316 137.32539874 -14.71428232 134.86207471 -17 131 C-20.37759539 119.42372041 -19.30896276 106.61259447 -19.30078125 94.703125 C-19.3046738 92.34047369 -19.30900961 89.97782307 -19.31376648 87.61517334 C-19.32119764 82.6830416 -19.32095857 77.7509815 -19.31567383 72.81884766 C-19.30986246 66.50862098 -19.32686566 60.19868623 -19.3500185 53.88850784 C-19.36476368 49.01739803 -19.36562681 44.14635858 -19.36250877 39.27523041 C-19.3630209 36.94848804 -19.36823813 34.62174163 -19.37832069 32.29502106 C-19.39069214 29.04316751 -19.38389038 25.79188386 -19.37231445 22.54003906 C-19.37995819 21.58712479 -19.38760193 20.63421051 -19.39547729 19.65242004 C-19.34188583 12.82222027 -18.47508604 7.01651111 -14 1.5625 C-9.60344659 -1.87230735 -5.15380808 -1.14529068 0 0 Z " fill="#2FCC41" transform="translate(1458,834)"/>
<path d="M0 0 C20.79 0 41.58 0 63 0 C63 17.49 63 34.98 63 53 C42.21 53 21.42 53 0 53 C0 35.51 0 18.02 0 0 Z " fill="#FDFEFD" transform="translate(1107,719)"/>
<path d="M0 0 C20.79 0 41.58 0 63 0 C63 17.49 63 34.98 63 53 C42.21 53 21.42 53 0 53 C0 35.51 0 18.02 0 0 Z " fill="#FDFEFD" transform="translate(852,719)"/>
<path d="M0 0 C20.79 0 41.58 0 63 0 C63 17.49 63 34.98 63 53 C42.21 53 21.42 53 0 53 C0 35.51 0 18.02 0 0 Z " fill="#FDFEFD" transform="translate(1537,355)"/>
<path d="M0 0 C20.79 0 41.58 0 63 0 C63 17.16 63 34.32 63 52 C42.21 52 21.42 52 0 52 C0 34.84 0 17.68 0 0 Z " fill="#FEFEFE" transform="translate(1305,356)"/>
</svg>
